Land_normalized_Motion_pl05
version=1
nRows=14
nColumns=43
inDegrees=yes
endheader
time		pelvis_tilt		pelvis_list		pelvis_rotation		pelvis_tx		pelvis_ty		pelvis_tz		hip_flexion_r		hip_adduction_r		hip_rotation_r		knee_angle_r		ankle_angle_r		subtalar_angle_r		mtp_angle_r		hip_flexion_l		hip_adduction_l		hip_rotation_l		knee_angle_l		ankle_angle_l		subtalar_angle_l		mtp_angle_l		lumbar_extension		lumbar_bending		lumbar_rotation		neck_flexion		neck_lateral_bending		neck_rotation		arm_flex_r		arm_add_r		arm_rot_r		elbow_flex_r		pro_sup_r		wrist_flex_r		wrist_dev_r		hand_finger_flex_r		arm_flex_l		arm_add_l		arm_rot_l		elbow_flex_l		pro_sup_l		wrist_flex_l		wrist_dev_l		hand_finger_flex_l		
1.377500		-1.902307		13.603037		94.329338		-0.004896		0.522047		0.422177		71.946467		-5.681304		-1.945558		-127.114281		10.871158		-8.067937		26.358332		67.232364		2.218385		-4.479247		-122.436997		22.542178		-17.524231		22.087388		-67.992673		1.307567		-2.988059		11.593074		2.200970		-3.997700		74.808910		-38.091412		30.773122		57.911499		99.857942		-33.041568		-2.226459		35.715329		63.826917		-36.903396		16.096387		77.125944		124.026713		-18.810841		13.198099		90.000210		
1.380152		-1.902079		13.320626		94.301700		-0.005042		0.518791		0.421622		72.640194		-5.724312		-1.896025		-127.545169		10.881824		-8.051088		26.382078		67.928127		2.125991		-4.593967		-122.950153		22.511302		-17.429597		22.223532		-68.093652		1.343874		-2.916871		12.028950		2.090497		-4.040674		76.605169		-37.276807		31.574089		57.805233		99.677190		-32.954936		-2.448268		35.504586		65.707001		-36.252002		17.081898		77.154273		124.194376		-18.833688		13.139083		90.000210		
1.382803		-1.900786		13.106693		94.303764		-0.005270		0.515883		0.420981		73.198712		-5.794784		-1.857514		-127.957807		10.936852		-8.039253		26.413080		68.502523		2.036334		-4.742186		-123.437340		22.547505		-17.393652		22.283268		-68.278341		1.413797		-2.834405		12.574163		1.977609		-4.042855		78.151434		-36.310327		31.806927		57.739106		99.591067		-32.912767		-2.554857		35.372417		67.364903		-35.391552		17.597166		77.230348		124.321015		-18.835854		13.065944		90.000210		
1.385455		-1.907840		12.750159		94.277900		-0.005215		0.512622		0.420511		73.973989		-5.786043		-1.744860		-128.356173		10.900412		-7.912512		26.490933		69.271442		1.942618		-4.818872		-123.895539		22.445104		-17.266419		22.417691		-68.289378		1.409639		-2.788671		12.854171		1.887163		-4.170251		79.937216		-35.638011		32.918647		57.651976		99.362805		-32.706929		-2.894708		35.100486		69.382948		-34.987394		19.070722		77.219335		124.700880		-18.724841		13.010735		90.000210		
1.388106		-1.952359		12.477178		94.247898		-0.005330		0.509633		0.419905		74.631363		-5.842122		-1.617883		-128.771125		10.903388		-7.768183		26.616590		69.906063		1.850646		-4.978475		-124.357927		22.416619		-17.185197		22.589456		-68.381948		1.392188		-2.705469		13.215761		1.843008		-4.300087		81.525381		-34.919881		33.665080		57.578738		98.907335		-32.694538		-3.286945		34.682954		71.194934		-34.336618		20.182453		77.225394		125.032164		-18.743870		13.049084		90.000210		
1.390758		-1.985659		12.244962		94.255558		-0.005470		0.506997		0.419295		75.182811		-5.881101		-1.483078		-129.130644		10.935437		-7.643314		26.727888		70.445837		1.767801		-5.142509		-124.758592		22.425029		-17.137317		22.717777		-68.542879		1.425602		-2.645330		13.650648		1.775947		-4.398905		82.963778		-34.076116		34.046255		57.542231		98.583152		-32.678920		-3.572748		34.374366		72.874854		-33.615296		21.011832		77.257130		125.315452		-18.768935		13.063398		90.000210		
1.393409		-2.024380		12.027656		94.277908		-0.005569		0.504553		0.418663		75.696868		-5.926263		-1.360938		-129.481721		10.970090		-7.509694		26.812629		70.937458		1.701985		-5.296696		-125.125999		22.449383		-17.090860		22.800459		-68.724009		1.458054		-2.601525		14.083915		1.709865		-4.497757		84.307648		-33.195813		34.268810		57.503879		98.443465		-32.616954		-3.799034		34.188906		74.512020		-32.899922		21.805811		77.295230		125.594893		-18.752349		13.040892		90.000210		
1.396061		-2.246540		11.805541		94.312628		-0.005519		0.502211		0.418106		76.256341		-5.994962		-0.978235		-129.857982		11.023131		-7.106071		27.113136		71.381883		1.687443		-5.586977		-125.421315		22.439582		-16.986429		23.075039		-68.902890		1.306157		-2.684296		14.396696		1.864392		-4.773231		85.627650		-32.559676		34.813589		57.477286		97.887351		-32.570409		-4.522064		33.623174		76.464519		-32.337100		23.290230		77.225813		126.157933		-18.908862		13.294745		90.000210		
1.398712		-2.474177		11.626430		94.353834		-0.005661		0.500087		0.417453		76.734588		-6.105840		-0.590211		-130.223884		11.098449		-6.733885		27.455159		71.742854		1.688028		-5.921467		-125.702412		22.470472		-16.933560		23.382688		-69.121417		1.193512		-2.749181		14.759338		1.979386		-4.996139		86.818331		-31.845071		35.069551		57.449702		97.278638		-32.596922		-5.194561		33.017738		78.198461		-31.630202		24.442227		77.191430		126.604170		-19.183237		13.594270		90.000210		
1.401364		-2.515173		11.403677		94.417199		-0.005812		0.497996		0.416813		77.206202		-6.179187		-0.443134		-130.535279		11.113763		-6.541327		27.597931		72.188833		1.670105		-6.035205		-125.996676		22.477424		-16.895469		23.504785		-69.293479		1.267649		-2.736222		15.143303		1.879201		-5.123136		88.010653		-30.953711		35.157759		57.413527		97.235408		-32.477587		-5.435239		32.858689		79.792451		-31.087520		25.458245		77.243263		126.931574		-19.171304		13.548695		90.000210		
1.404015		-2.563435		11.200653		94.481218		-0.006014		0.496118		0.416148		77.621887		-6.260601		-0.295474		-130.825432		11.173483		-6.399160		27.699801		72.578623		1.660547		-6.157914		-126.266037		22.524670		-16.851812		23.592831		-69.478260		1.333830		-2.695265		15.536277		1.846903		-5.200022		89.090456		-30.058510		35.090116		57.365026		97.206398		-32.438083		-5.650223		32.727806		81.228100		-30.347018		26.149878		77.230104		127.183218		-19.182425		13.518997		90.000210		
1.406667		-2.660242		10.978278		94.586971		-0.006153		0.494268		0.415467		78.056272		-6.375613		-0.087738		-131.127677		11.243401		-6.133497		27.835171		72.978556		1.701890		-6.289417		-126.516124		22.553120		-16.738971		23.708701		-69.637387		1.366465		-2.715608		15.849517		1.900249		-5.363965		90.074046		-29.239352		34.995217		57.350849		97.220448		-32.359119		-6.061750		32.588000		82.829693		-29.772476		27.275557		77.198930		127.635173		-19.171798		13.483890		90.000210		
1.409318		-2.727965		10.757418		94.667264		-0.006348		0.492601		0.414800		78.451318		-6.455472		0.077766		-131.385334		11.322623		-5.965363		27.930042		73.355622		1.730255		-6.415171		-126.743079		22.605517		-16.664394		23.791666		-69.796839		1.420655		-2.694217		16.193465		1.885686		-5.443144		91.023345		-28.380417		34.827646		57.326201		97.218085		-32.328198		-6.335290		32.472730		84.213820		-29.046238		27.985874		77.140468		127.951260		-19.189739		13.455233		90.000210		
1.411970		-2.839816		10.484666		94.795862		-0.006452		0.490887		0.414143		78.907205		-6.572400		0.286389		-131.656946		11.414290		-5.687540		28.065649		73.790707		1.806052		-6.530086		-126.955956		22.624805		-16.514788		23.912234		-69.893406		1.448636		-2.759778		16.457937		1.937545		-5.586387		91.858219		-27.571691		34.607421		57.348310		97.276986		-32.221622		-6.785765		32.338059		85.758389		-28.512811		29.124946		77.067981		128.526954		-19.210951		13.414440		90.000210		
